<?xml version="1.0" encoding="UTF-8" standalone="no"?>
<!-- Created with Inkscape (http://www.inkscape.org/) -->

<svg
   xmlns:dc="http://purl.org/dc/elements/1.1/"
   xmlns:cc="http://creativecommons.org/ns#"
   xmlns:rdf="http://www.w3.org/1999/02/22-rdf-syntax-ns#"
   xmlns:svg="http://www.w3.org/2000/svg"
   xmlns="http://www.w3.org/2000/svg"
   xmlns:sodipodi="http://sodipodi.sourceforge.net/DTD/sodipodi-0.dtd"
   xmlns:inkscape="http://www.inkscape.org/namespaces/inkscape"
   width="130.10861mm"
   height="27.106436mm"
   viewBox="0 0 130.10861 27.106436"
   version="1.1"
   id="svg2668"
   inkscape:version="0.92.4 (5da689c313, 2019-01-14)"
   sodipodi:docname="logo_text.svg">
  <defs
     id="defs2662" />
  <sodipodi:namedview
     id="base"
     pagecolor="#ffffff"
     bordercolor="#666666"
     borderopacity="1.0"
     inkscape:pageopacity="0.0"
     inkscape:pageshadow="2"
     inkscape:zoom="1.4"
     inkscape:cx="299.67658"
     inkscape:cy="6.2057987"
     inkscape:document-units="mm"
     inkscape:current-layer="layer1"
     showgrid="false"
     inkscape:window-width="1858"
     inkscape:window-height="1057"
     inkscape:window-x="-8"
     inkscape:window-y="-8"
     inkscape:window-maximized="1" />
  <metadata
     id="metadata2665">
    <rdf:RDF>
      <cc:Work
         rdf:about="">
        <dc:format>image/svg+xml</dc:format>
        <dc:type
           rdf:resource="http://purl.org/dc/dcmitype/StillImage" />
        <dc:title></dc:title>
      </cc:Work>
    </rdf:RDF>
  </metadata>
  <g
     inkscape:label="Layer 1"
     inkscape:groupmode="layer"
     id="layer1"
     transform="translate(146.69716,-76.31583)">
    <g
       id="g1569-0-6"
       transform="translate(-120.68977,-56.69434)"
       style="fill:#fa8072;fill-opacity:1">
      <path
         d="m 63.570365,139.74645 v -3.22461 h 3.48506 v 3.22461 z m 0,14.95722 v -13.17129 h 3.48506 v 13.17129 z"
         style="font-style:normal;font-variant:normal;font-weight:bold;font-stretch:normal;font-size:96px;line-height:1.25;font-family:Arial;-inkscape-font-specification:Arial;letter-spacing:0px;word-spacing:0px;fill:#fa8072;fill-opacity:1;stroke:none;stroke-width:0.26458332"
         id="path831-4-8"
         inkscape:connector-curvature="0" />
      <path
         d="m 68.328731,150.94576 3.497461,-0.5333 q 0.223242,1.01699 0.90537,1.55029 0.68213,0.5209 1.909961,0.5209 1.351857,0 2.033984,-0.49609 0.458888,-0.34727 0.458888,-0.93018 0,-0.39687 -0.248047,-0.65732 -0.26045,-0.24805 -1.16582,-0.45889 -4.216797,-0.93017 -5.345411,-1.69912 -1.562696,-1.0666 -1.562696,-2.96416 0,-1.71152 1.351857,-2.87734 1.351854,-1.16582 4.191992,-1.16582 2.703711,0 4.01836,0.88056 1.314648,0.88057 1.810742,2.60449 l -3.286623,0.60772 q -0.210838,-0.76894 -0.806151,-1.17822 -0.582911,-0.40928 -1.674317,-0.40928 -1.376659,0 -1.971972,0.38447 -0.396875,0.27285 -0.396875,0.70694 0,0.37207 0.347266,0.63251 0.471289,0.34727 3.249414,0.97979 2.790526,0.63252 3.894336,1.55029 1.091406,0.93018 1.091406,2.59209 0,1.81075 -1.513086,3.11299 -1.513086,1.30225 -4.477247,1.30225 -2.691307,0 -4.266406,-1.09141 -1.562696,-1.0914 -2.046386,-2.96416 z"
         style="font-style:normal;font-variant:normal;font-weight:bold;font-stretch:normal;font-size:96px;line-height:1.25;font-family:Arial;-inkscape-font-specification:Arial;letter-spacing:0px;word-spacing:0px;fill:#fa8072;fill-opacity:1;stroke:none;stroke-width:0.26458332"
         id="path833-33-5"
         inkscape:connector-curvature="0" />
      <path
         d="m 90.264342,150.51168 3.472657,0.58291 q -0.669727,1.90996 -2.120802,2.91455 -1.438672,0.99219 -3.609081,0.99219 -3.435451,0 -5.084961,-2.24483 -1.302247,-1.79834 -1.302247,-4.53925 0,-3.27422 1.711523,-5.12217 1.711523,-1.86035 4.328419,-1.86035 2.939354,0 4.638477,1.94716 1.699119,1.93477 1.624705,5.94073 h -8.731249 q 0.03721,1.55029 0.843359,2.41845 0.806154,0.85577 2.00918,0.85577 0.818554,0 1.376661,-0.44649 0.558104,-0.44648 0.843359,-1.43867 z m 0.198438,-3.52227 q -0.03721,-1.51308 -0.781349,-2.29443 -0.744141,-0.79375 -1.810742,-0.79375 -1.141016,0 -1.885156,0.83096 -0.744141,0.83095 -0.731737,2.25722 z"
         style="font-style:normal;font-variant:normal;font-weight:bold;font-stretch:normal;font-size:96px;line-height:1.25;font-family:Arial;-inkscape-font-specification:Arial;letter-spacing:0px;word-spacing:0px;fill:#fa8072;fill-opacity:1;stroke:none;stroke-width:0.26458332"
         id="path835-4-5"
         inkscape:connector-curvature="0" />
      <path
         d="m 99.053469,154.70367 h -3.48506 v -13.17129 h 3.237013 v 1.87276 q 0.830956,-1.32705 1.488278,-1.74873 0.66973,-0.42168 1.51309,-0.42168 1.19062,0 2.29443,0.65732 l -1.079,3.03858 q -0.88057,-0.57051 -1.63711,-0.57051 -0.73174,0 -1.24023,0.40927 -0.508502,0.39688 -0.806158,1.45108 -0.285253,1.0542 -0.285253,4.41523 z"
         style="font-style:normal;font-variant:normal;font-weight:bold;font-stretch:normal;font-size:96px;line-height:1.25;font-family:Arial;-inkscape-font-specification:Arial;letter-spacing:0px;word-spacing:0px;fill:#fa8072;fill-opacity:1;stroke:none;stroke-width:0.26458332"
         id="path837-91-9"
         inkscape:connector-curvature="0" />
    </g>
    <g
       id="g1575-3-6-0"
       transform="translate(-148.55751,-56.1598)"
       style="fill:#fa8072;fill-opacity:1">
      <path
         d="m 1.8603515,154.70367 v -18.18183 h 3.6710937 v 7.15615 h 7.1933598 v -7.15615 h 3.671093 v 18.18183 h -3.671093 v -7.9499 H 5.5314452 v 7.9499 z"
         style="font-style:normal;font-variant:normal;font-weight:bold;font-stretch:normal;font-size:96px;line-height:1.25;font-family:Arial;-inkscape-font-specification:Arial;letter-spacing:0px;word-spacing:0px;fill:#fa8072;fill-opacity:1;stroke:none;stroke-width:0.26458332"
         id="path823-92-4-2"
         inkscape:connector-curvature="0" />
      <path
         d="m 26.74772,150.51168 3.472657,0.58291 q -0.669727,1.90996 -2.1208,2.91455 -1.438672,0.99219 -3.609083,0.99219 -3.435449,0 -5.084961,-2.24483 -1.302246,-1.79834 -1.302246,-4.53925 0,-3.27422 1.711523,-5.12217 1.711524,-1.86035 4.328418,-1.86035 2.939357,0 4.638477,1.94716 1.699122,1.93477 1.624708,5.94073 h -8.731251 q 0.03721,1.55029 0.843359,2.41845 0.806153,0.85577 2.00918,0.85577 0.818555,0 1.37666,-0.44649 0.558107,-0.44648 0.843359,-1.43867 z m 0.198438,-3.52227 q -0.03721,-1.51308 -0.781346,-2.29443 -0.744141,-0.79375 -1.810744,-0.79375 -1.141016,0 -1.885156,0.83096 -0.744141,0.83095 -0.731738,2.25722 z"
         style="font-style:normal;font-variant:normal;font-weight:bold;font-stretch:normal;font-size:96px;line-height:1.25;font-family:Arial;-inkscape-font-specification:Arial;letter-spacing:0px;word-spacing:0px;fill:#fa8072;fill-opacity:1;stroke:none;stroke-width:0.26458332"
         id="path825-45-8-1"
         inkscape:connector-curvature="0" />
      <path
         d="m 32.729782,154.70367 v -18.18183 h 3.48506 v 18.18183 z"
         style="font-style:normal;font-variant:normal;font-weight:bold;font-stretch:normal;font-size:96px;line-height:1.25;font-family:Arial;-inkscape-font-specification:Arial;letter-spacing:0px;word-spacing:0px;fill:#fa8072;fill-opacity:1;stroke:none;stroke-width:0.26458332"
         id="path827-6-7-2"
         inkscape:connector-curvature="0" />
      <path
         d="m 39.774314,139.74645 v -3.22461 h 3.485059 v 3.22461 z m 0,14.95722 v -13.17129 h 3.485059 v 13.17129 z"
         style="font-style:normal;font-variant:normal;font-weight:bold;font-stretch:normal;font-size:96px;line-height:1.25;font-family:Arial;-inkscape-font-specification:Arial;letter-spacing:0px;word-spacing:0px;fill:#fa8072;fill-opacity:1;stroke:none;stroke-width:0.26458332"
         id="path829-9-7-7"
         inkscape:connector-curvature="0" />
    </g>
    <g
       transform="translate(-57.834643,-113.58661)"
       id="g2387-1-0"
       style="fill:#fa8072;fill-opacity:1">
      <ellipse
         ry="1.2361215"
         rx="5.8131123"
         cy="203.50305"
         cx="-23.967772"
         id="path849-8-42-3-9-6"
         style="opacity:1;fill:#fa8072;fill-opacity:1;stroke:none;stroke-width:30;stroke-linecap:round;stroke-linejoin:round;stroke-miterlimit:4;stroke-dasharray:none;stroke-dashoffset:0;stroke-opacity:1;paint-order:stroke fill markers" />
      <ellipse
         ry="0.55124336"
         rx="1.6537303"
         cy="203.50305"
         cx="-13.74859"
         id="path950-1-1-6-8-4-0"
         style="opacity:1;fill:#fa8072;fill-opacity:1;stroke:none;stroke-width:30;stroke-linecap:round;stroke-linejoin:round;stroke-miterlimit:4;stroke-dasharray:none;stroke-dashoffset:0;stroke-opacity:1;paint-order:stroke fill markers" />
      <g
         id="g2120-0-5-4"
         transform="translate(-61.487143,58.260496)"
         style="fill:#fa8072;fill-opacity:1">
        <ellipse
           style="opacity:1;fill:#fa8072;fill-opacity:1;stroke:none;stroke-width:30;stroke-linecap:round;stroke-linejoin:round;stroke-miterlimit:4;stroke-dasharray:none;stroke-dashoffset:0;stroke-opacity:1;paint-order:stroke fill markers"
           id="path950-1-20-8-6-8"
           cx="51.781006"
           cy="149.39561"
           rx="1.6537303"
           ry="0.55124336" />
        <ellipse
           style="opacity:1;fill:#fa8072;fill-opacity:1;stroke:none;stroke-width:30;stroke-linecap:round;stroke-linejoin:round;stroke-miterlimit:4;stroke-dasharray:none;stroke-dashoffset:0;stroke-opacity:1;paint-order:stroke fill markers"
           id="path950-8-47-9-0-6"
           cx="55.884312"
           cy="153.42107"
           rx="1.6537303"
           ry="0.55124336" />
        <path
           style="opacity:1;fill:#fa8072;fill-opacity:1;stroke:none;stroke-width:47.46003342;stroke-linecap:round;stroke-linejoin:round;stroke-miterlimit:4;stroke-dasharray:none;stroke-dashoffset:0;stroke-opacity:1;paint-order:stroke fill markers"
           d="m 48.204456,149.40475 c 10e-7,0.64857 -4.923965,1.16517 -5.846522,1.16517 -0.922556,0 -1.670436,-0.52577 -1.670434,-1.17435 -2e-6,-0.64857 0.747878,-1.17434 1.670434,-1.17434 0.922557,0 5.846523,0.53495 5.846522,1.18352 z"
           id="path851-4-6-6-2-7-9"
           inkscape:connector-curvature="0"
           sodipodi:nodetypes="cscsc" />
        <path
           style="opacity:1;fill:#fa8072;fill-opacity:1;stroke:none;stroke-width:47.46003342;stroke-linecap:round;stroke-linejoin:round;stroke-miterlimit:4;stroke-dasharray:none;stroke-dashoffset:0;stroke-opacity:1;paint-order:stroke fill markers"
           d="m 51.795035,153.43017 c 1e-6,0.64857 -4.923965,1.16517 -5.846522,1.16517 -0.922556,0 -1.670436,-0.52577 -1.670434,-1.17435 -2e-6,-0.64857 0.747878,-1.17434 1.670434,-1.17434 0.922557,0 5.846523,0.53495 5.846522,1.18352 z"
           id="path851-4-6-8-0-8-6-0"
           inkscape:connector-curvature="0"
           sodipodi:nodetypes="cscsc" />
        <ellipse
           style="opacity:1;fill:#fa8072;fill-opacity:1;stroke:none;stroke-width:30;stroke-linecap:round;stroke-linejoin:round;stroke-miterlimit:4;stroke-dasharray:none;stroke-dashoffset:0;stroke-opacity:1;paint-order:stroke fill markers"
           id="path950-8-47-3-8-2-5"
           cx="59.310329"
           cy="157.57411"
           rx="1.6537303"
           ry="0.55124336" />
        <path
           style="opacity:1;fill:#fa8072;fill-opacity:1;stroke:none;stroke-width:47.46003342;stroke-linecap:round;stroke-linejoin:round;stroke-miterlimit:4;stroke-dasharray:none;stroke-dashoffset:0;stroke-opacity:1;paint-order:stroke fill markers"
           d="m 55.221052,157.58321 c 10e-7,0.64857 -4.923965,1.16517 -5.846522,1.16517 -0.922556,0 -1.670436,-0.52577 -1.670434,-1.17435 -2e-6,-0.64857 0.747878,-1.17434 1.670434,-1.17434 0.922557,0 5.846523,0.53495 5.846522,1.18352 z"
           id="path851-4-6-8-0-4-4-9-3"
           inkscape:connector-curvature="0"
           sodipodi:nodetypes="cscsc" />
      </g>
      <g
         id="g2120-9-6-2-0"
         transform="matrix(1,0,0,-1,-61.333383,348.65084)"
         style="fill:#fa8072;fill-opacity:1">
        <ellipse
           style="opacity:1;fill:#fa8072;fill-opacity:1;stroke:none;stroke-width:30;stroke-linecap:round;stroke-linejoin:round;stroke-miterlimit:4;stroke-dasharray:none;stroke-dashoffset:0;stroke-opacity:1;paint-order:stroke fill markers"
           id="path950-1-20-3-7-9-0"
           cx="51.781006"
           cy="149.39561"
           rx="1.6537303"
           ry="0.55124336" />
        <ellipse
           style="opacity:1;fill:#fa8072;fill-opacity:1;stroke:none;stroke-width:30;stroke-linecap:round;stroke-linejoin:round;stroke-miterlimit:4;stroke-dasharray:none;stroke-dashoffset:0;stroke-opacity:1;paint-order:stroke fill markers"
           id="path950-8-47-6-8-0-1"
           cx="55.884312"
           cy="153.42107"
           rx="1.6537303"
           ry="0.55124336" />
        <path
           style="opacity:1;fill:#fa8072;fill-opacity:1;stroke:none;stroke-width:47.46003342;stroke-linecap:round;stroke-linejoin:round;stroke-miterlimit:4;stroke-dasharray:none;stroke-dashoffset:0;stroke-opacity:1;paint-order:stroke fill markers"
           d="m 48.204456,149.40475 c 10e-7,0.64857 -4.923965,1.16517 -5.846522,1.16517 -0.922556,0 -1.670436,-0.52577 -1.670434,-1.17435 -2e-6,-0.64857 0.747878,-1.17434 1.670434,-1.17434 0.922557,0 5.846523,0.53495 5.846522,1.18352 z"
           id="path851-4-6-6-3-7-9-7"
           inkscape:connector-curvature="0"
           sodipodi:nodetypes="cscsc" />
        <path
           style="opacity:1;fill:#fa8072;fill-opacity:1;stroke:none;stroke-width:47.46003342;stroke-linecap:round;stroke-linejoin:round;stroke-miterlimit:4;stroke-dasharray:none;stroke-dashoffset:0;stroke-opacity:1;paint-order:stroke fill markers"
           d="m 51.795035,153.43017 c 1e-6,0.64857 -4.923965,1.16517 -5.846522,1.16517 -0.922556,0 -1.670436,-0.52577 -1.670434,-1.17435 -2e-6,-0.64857 0.747878,-1.17434 1.670434,-1.17434 0.922557,0 5.846523,0.53495 5.846522,1.18352 z"
           id="path851-4-6-8-0-5-9-8-5"
           inkscape:connector-curvature="0"
           sodipodi:nodetypes="cscsc" />
        <ellipse
           style="opacity:1;fill:#fa8072;fill-opacity:1;stroke:none;stroke-width:30;stroke-linecap:round;stroke-linejoin:round;stroke-miterlimit:4;stroke-dasharray:none;stroke-dashoffset:0;stroke-opacity:1;paint-order:stroke fill markers"
           id="path950-8-47-3-4-6-6-8"
           cx="59.310329"
           cy="157.57411"
           rx="1.6537303"
           ry="0.55124336" />
        <path
           style="opacity:1;fill:#fa8072;fill-opacity:1;stroke:none;stroke-width:47.46003342;stroke-linecap:round;stroke-linejoin:round;stroke-miterlimit:4;stroke-dasharray:none;stroke-dashoffset:0;stroke-opacity:1;paint-order:stroke fill markers"
           d="m 55.221052,157.58321 c 10e-7,0.64857 -4.923965,1.16517 -5.846522,1.16517 -0.922556,0 -1.670436,-0.52577 -1.670434,-1.17435 -2e-6,-0.64857 0.747878,-1.17434 1.670434,-1.17434 0.922557,0 5.846523,0.53495 5.846522,1.18352 z"
           id="path851-4-6-8-0-4-8-12-6-2"
           inkscape:connector-curvature="0"
           sodipodi:nodetypes="cscsc" />
      </g>
      <g
         id="g2120-9-4-13-9-3"
         transform="rotate(180,7.0639428,174.32541)"
         style="fill:#fa8072;fill-opacity:1">
        <ellipse
           style="opacity:1;fill:#fa8072;fill-opacity:1;stroke:none;stroke-width:30;stroke-linecap:round;stroke-linejoin:round;stroke-miterlimit:4;stroke-dasharray:none;stroke-dashoffset:0;stroke-opacity:1;paint-order:stroke fill markers"
           id="path950-1-20-3-2-1-1-4"
           cx="51.781006"
           cy="149.39561"
           rx="1.6537303"
           ry="0.55124336" />
        <ellipse
           style="opacity:1;fill:#fa8072;fill-opacity:1;stroke:none;stroke-width:30;stroke-linecap:round;stroke-linejoin:round;stroke-miterlimit:4;stroke-dasharray:none;stroke-dashoffset:0;stroke-opacity:1;paint-order:stroke fill markers"
           id="path950-8-47-6-9-0-8-5"
           cx="55.884312"
           cy="153.42107"
           rx="1.6537303"
           ry="0.55124336" />
        <path
           style="opacity:1;fill:#fa8072;fill-opacity:1;stroke:none;stroke-width:47.46003342;stroke-linecap:round;stroke-linejoin:round;stroke-miterlimit:4;stroke-dasharray:none;stroke-dashoffset:0;stroke-opacity:1;paint-order:stroke fill markers"
           d="m 48.204456,149.40475 c 10e-7,0.64857 -4.923965,1.16517 -5.846522,1.16517 -0.922556,0 -1.670436,-0.52577 -1.670434,-1.17435 -2e-6,-0.64857 0.747878,-1.17434 1.670434,-1.17434 0.922557,0 5.846523,0.53495 5.846522,1.18352 z"
           id="path851-4-6-6-3-6-4-5-0"
           inkscape:connector-curvature="0"
           sodipodi:nodetypes="cscsc" />
        <path
           style="opacity:1;fill:#fa8072;fill-opacity:1;stroke:none;stroke-width:47.46003342;stroke-linecap:round;stroke-linejoin:round;stroke-miterlimit:4;stroke-dasharray:none;stroke-dashoffset:0;stroke-opacity:1;paint-order:stroke fill markers"
           d="m 51.795035,153.43017 c 1e-6,0.64857 -4.923965,1.16517 -5.846522,1.16517 -0.922556,0 -1.670436,-0.52577 -1.670434,-1.17435 -2e-6,-0.64857 0.747878,-1.17434 1.670434,-1.17434 0.922557,0 5.846523,0.53495 5.846522,1.18352 z"
           id="path851-4-6-8-0-5-1-2-1-7"
           inkscape:connector-curvature="0"
           sodipodi:nodetypes="cscsc" />
        <ellipse
           style="opacity:1;fill:#fa8072;fill-opacity:1;stroke:none;stroke-width:30;stroke-linecap:round;stroke-linejoin:round;stroke-miterlimit:4;stroke-dasharray:none;stroke-dashoffset:0;stroke-opacity:1;paint-order:stroke fill markers"
           id="path950-8-47-3-4-1-2-9-1"
           cx="59.310329"
           cy="157.57411"
           rx="1.6537303"
           ry="0.55124336" />
        <path
           style="opacity:1;fill:#fa8072;fill-opacity:1;stroke:none;stroke-width:47.46003342;stroke-linecap:round;stroke-linejoin:round;stroke-miterlimit:4;stroke-dasharray:none;stroke-dashoffset:0;stroke-opacity:1;paint-order:stroke fill markers"
           d="m 55.221052,157.58321 c 10e-7,0.64857 -4.923965,1.16517 -5.846522,1.16517 -0.922556,0 -1.670436,-0.52577 -1.670434,-1.17435 -2e-6,-0.64857 0.747878,-1.17434 1.670434,-1.17434 0.922557,0 5.846523,0.53495 5.846522,1.18352 z"
           id="path851-4-6-8-0-4-8-1-9-3-3"
           inkscape:connector-curvature="0"
           sodipodi:nodetypes="cscsc" />
      </g>
      <g
         id="g2120-9-4-1-8-3-8"
         transform="matrix(-1,0,0,1,14.026677,58.260496)"
         style="fill:#fa8072;fill-opacity:1">
        <ellipse
           style="opacity:1;fill:#fa8072;fill-opacity:1;stroke:none;stroke-width:30;stroke-linecap:round;stroke-linejoin:round;stroke-miterlimit:4;stroke-dasharray:none;stroke-dashoffset:0;stroke-opacity:1;paint-order:stroke fill markers"
           id="path950-1-20-3-2-4-3-0-1"
           cx="51.781006"
           cy="149.39561"
           rx="1.6537303"
           ry="0.55124336" />
        <ellipse
           style="opacity:1;fill:#fa8072;fill-opacity:1;stroke:none;stroke-width:30;stroke-linecap:round;stroke-linejoin:round;stroke-miterlimit:4;stroke-dasharray:none;stroke-dashoffset:0;stroke-opacity:1;paint-order:stroke fill markers"
           id="path950-8-47-6-9-3-3-0-3"
           cx="55.884312"
           cy="153.42107"
           rx="1.6537303"
           ry="0.55124336" />
        <path
           style="opacity:1;fill:#fa8072;fill-opacity:1;stroke:none;stroke-width:47.46003342;stroke-linecap:round;stroke-linejoin:round;stroke-miterlimit:4;stroke-dasharray:none;stroke-dashoffset:0;stroke-opacity:1;paint-order:stroke fill markers"
           d="m 48.204456,149.40475 c 10e-7,0.64857 -4.923965,1.16517 -5.846522,1.16517 -0.922556,0 -1.670436,-0.52577 -1.670434,-1.17435 -2e-6,-0.64857 0.747878,-1.17434 1.670434,-1.17434 0.922557,0 5.846523,0.53495 5.846522,1.18352 z"
           id="path851-4-6-6-3-6-0-4-0-6"
           inkscape:connector-curvature="0"
           sodipodi:nodetypes="cscsc" />
        <path
           style="opacity:1;fill:#fa8072;fill-opacity:1;stroke:none;stroke-width:47.46003342;stroke-linecap:round;stroke-linejoin:round;stroke-miterlimit:4;stroke-dasharray:none;stroke-dashoffset:0;stroke-opacity:1;paint-order:stroke fill markers"
           d="m 51.795035,153.43017 c 1e-6,0.64857 -4.923965,1.16517 -5.846522,1.16517 -0.922556,0 -1.670436,-0.52577 -1.670434,-1.17435 -2e-6,-0.64857 0.747878,-1.17434 1.670434,-1.17434 0.922557,0 5.846523,0.53495 5.846522,1.18352 z"
           id="path851-4-6-8-0-5-1-8-6-3-9"
           inkscape:connector-curvature="0"
           sodipodi:nodetypes="cscsc" />
        <ellipse
           style="opacity:1;fill:#fa8072;fill-opacity:1;stroke:none;stroke-width:30;stroke-linecap:round;stroke-linejoin:round;stroke-miterlimit:4;stroke-dasharray:none;stroke-dashoffset:0;stroke-opacity:1;paint-order:stroke fill markers"
           id="path950-8-47-3-4-1-3-8-7-2"
           cx="59.310329"
           cy="157.57411"
           rx="1.6537303"
           ry="0.55124336" />
        <path
           style="opacity:1;fill:#fa8072;fill-opacity:1;stroke:none;stroke-width:47.46003342;stroke-linecap:round;stroke-linejoin:round;stroke-miterlimit:4;stroke-dasharray:none;stroke-dashoffset:0;stroke-opacity:1;paint-order:stroke fill markers"
           d="m 55.221052,157.58321 c 10e-7,0.64857 -4.923965,1.16517 -5.846522,1.16517 -0.922556,0 -1.670436,-0.52577 -1.670434,-1.17435 -2e-6,-0.64857 0.747878,-1.17434 1.670434,-1.17434 0.922557,0 5.846523,0.53495 5.846522,1.18352 z"
           id="path851-4-6-8-0-4-8-1-2-9-4-2"
           inkscape:connector-curvature="0"
           sodipodi:nodetypes="cscsc" />
      </g>
      <ellipse
         ry="0.55124336"
         rx="1.6537303"
         cy="203.50305"
         cx="-33.752556"
         id="path950-1-1-6-0-1-3-1"
         style="opacity:1;fill:#fa8072;fill-opacity:1;stroke:none;stroke-width:30;stroke-linecap:round;stroke-linejoin:round;stroke-miterlimit:4;stroke-dasharray:none;stroke-dashoffset:0;stroke-opacity:1;paint-order:stroke fill markers" />
    </g>
  </g>
</svg>
